<mxfile host="app.diagrams.net" modified="2023-02-20T20:58:18.100Z" agent="5.0 (Windows NT 10.0; Win64; x64) AppleWebKit/537.36 (KHTML, like Gecko) Chrome/110.0.0.0 Safari/537.36" etag="3b1fCGLBEW5dpTnVt08_" version="20.8.21" type="github">
  <diagram name="Page-1" id="HhY7eh6iS74X1fsNOlDr">
    <mxGraphModel dx="1434" dy="788" grid="1" gridSize="10" guides="1" tooltips="1" connect="1" arrows="1" fold="1" page="1" pageScale="1" pageWidth="827" pageHeight="1169" math="0" shadow="0">
      <root>
        <mxCell id="0" />
        <mxCell id="1" parent="0" />
        <mxCell id="MrjElrU38foT1K2u0rSW-3" style="edgeStyle=orthogonalEdgeStyle;rounded=0;orthogonalLoop=1;jettySize=auto;html=1;exitX=0.5;exitY=1;exitDx=0;exitDy=0;fontSize=24;" parent="1" source="k9eV4bXOzmexkXLJ5OBp-1" target="MrjElrU38foT1K2u0rSW-2" edge="1">
          <mxGeometry relative="1" as="geometry" />
        </mxCell>
        <mxCell id="k9eV4bXOzmexkXLJ5OBp-1" value="&lt;font style=&quot;font-size: 14px;&quot;&gt;Job (Email sender)&lt;/font&gt;" style="whiteSpace=wrap;html=1;aspect=fixed;" parent="1" vertex="1">
          <mxGeometry x="40" y="130" width="80" height="80" as="geometry" />
        </mxCell>
        <mxCell id="k9eV4bXOzmexkXLJ5OBp-3" style="edgeStyle=orthogonalEdgeStyle;rounded=0;orthogonalLoop=1;jettySize=auto;html=1;fontSize=24;entryX=0.75;entryY=1;entryDx=0;entryDy=0;" parent="1" source="k9eV4bXOzmexkXLJ5OBp-2" target="k9eV4bXOzmexkXLJ5OBp-1" edge="1">
          <mxGeometry relative="1" as="geometry">
            <mxPoint x="350" y="259" as="targetPoint" />
          </mxGeometry>
        </mxCell>
        <mxCell id="k9eV4bXOzmexkXLJ5OBp-2" value="&lt;font style=&quot;font-size: 11px;&quot;&gt;Quartz&lt;/font&gt;" style="html=1;verticalLabelPosition=bottom;align=center;labelBackgroundColor=#ffffff;verticalAlign=top;strokeWidth=2;strokeColor=#0080F0;shadow=0;dashed=0;shape=mxgraph.ios7.icons.clock;fontSize=24;" parent="1" vertex="1">
          <mxGeometry x="190" y="150" width="50" height="50" as="geometry" />
        </mxCell>
        <mxCell id="Gu4WRyABpQjgVBlWQwCZ-5" style="edgeStyle=orthogonalEdgeStyle;rounded=0;orthogonalLoop=1;jettySize=auto;html=1;" edge="1" parent="1" source="MrjElrU38foT1K2u0rSW-2" target="Gu4WRyABpQjgVBlWQwCZ-2">
          <mxGeometry relative="1" as="geometry" />
        </mxCell>
        <mxCell id="MrjElrU38foT1K2u0rSW-2" value="" style="verticalLabelPosition=bottom;sketch=0;aspect=fixed;html=1;verticalAlign=top;strokeColor=none;align=center;outlineConnect=0;shape=mxgraph.citrix.smtp_server;fontSize=24;" parent="1" vertex="1">
          <mxGeometry x="60" y="260" width="39.83" height="48.21" as="geometry" />
        </mxCell>
        <mxCell id="MrjElrU38foT1K2u0rSW-10" value="&lt;font style=&quot;font-size: 12px;&quot;&gt;Backend&amp;nbsp; Architecture of the application&lt;/font&gt;" style="shape=note;whiteSpace=wrap;html=1;backgroundOutline=1;fontColor=#000000;darkOpacity=0.05;fillColor=#FFF9B2;strokeColor=none;fillStyle=solid;direction=west;gradientDirection=north;gradientColor=#FFF2A1;shadow=1;size=20;pointerEvents=1;fontSize=24;" parent="1" vertex="1">
          <mxGeometry x="50" y="60" width="220" height="50" as="geometry" />
        </mxCell>
        <mxCell id="MrjElrU38foT1K2u0rSW-11" value="&lt;h4&gt;&lt;br&gt;&lt;/h4&gt;" style="verticalLabelPosition=bottom;html=1;verticalAlign=top;align=center;shape=mxgraph.floorplan.room;fillColor=strokeColor;fontSize=24;" parent="1" vertex="1">
          <mxGeometry x="25" y="110" width="305" height="240" as="geometry" />
        </mxCell>
        <mxCell id="MrjElrU38foT1K2u0rSW-13" value="&lt;font style=&quot;font-size: 12px;&quot;&gt;Front End Architecture of the application&lt;/font&gt;" style="shape=note;whiteSpace=wrap;html=1;backgroundOutline=1;fontColor=#000000;darkOpacity=0.05;fillColor=#FFF9B2;strokeColor=none;fillStyle=solid;direction=west;gradientDirection=north;gradientColor=#FFF2A1;shadow=1;size=20;pointerEvents=1;fontSize=24;" parent="1" vertex="1">
          <mxGeometry x="470" y="70" width="220" height="50" as="geometry" />
        </mxCell>
        <mxCell id="MrjElrU38foT1K2u0rSW-14" value="" style="verticalLabelPosition=bottom;html=1;verticalAlign=top;align=center;shape=mxgraph.floorplan.room;fillColor=strokeColor;labelBackgroundColor=#3333FF;fontSize=14;" parent="1" vertex="1">
          <mxGeometry x="450" y="120" width="310" height="240" as="geometry" />
        </mxCell>
        <mxCell id="MrjElrU38foT1K2u0rSW-16" value="&lt;span style=&quot;background-color: rgb(255, 255, 255);&quot;&gt;http&lt;/span&gt;" style="whiteSpace=wrap;html=1;labelBackgroundColor=#3333FF;fontSize=14;" parent="1" vertex="1">
          <mxGeometry x="340" y="200" width="80" height="20" as="geometry" />
        </mxCell>
        <mxCell id="MrjElrU38foT1K2u0rSW-17" value="" style="endArrow=classic;startArrow=classic;html=1;rounded=0;fontSize=14;entryX=0.006;entryY=0.425;entryDx=0;entryDy=0;entryPerimeter=0;" parent="1" target="MrjElrU38foT1K2u0rSW-14" edge="1">
          <mxGeometry width="50" height="50" relative="1" as="geometry">
            <mxPoint x="330" y="222" as="sourcePoint" />
            <mxPoint x="420" y="220" as="targetPoint" />
          </mxGeometry>
        </mxCell>
        <mxCell id="MrjElrU38foT1K2u0rSW-18" value="Angular App" style="text;strokeColor=none;align=center;fillColor=none;html=1;verticalAlign=middle;whiteSpace=wrap;rounded=0;fontSize=14;" parent="1" vertex="1">
          <mxGeometry x="520" y="170" width="70" height="50" as="geometry" />
        </mxCell>
        <mxCell id="MrjElrU38foT1K2u0rSW-19" value="&lt;font style=&quot;font-size: 12px;&quot;&gt;Data Base Architecture&amp;nbsp;&lt;/font&gt;" style="shape=note;whiteSpace=wrap;html=1;backgroundOutline=1;fontColor=#000000;darkOpacity=0.05;fillColor=#FFF9B2;strokeColor=none;fillStyle=solid;direction=west;gradientDirection=north;gradientColor=#FFF2A1;shadow=1;size=20;pointerEvents=1;fontSize=24;" parent="1" vertex="1">
          <mxGeometry x="50" y="460" width="220" height="50" as="geometry" />
        </mxCell>
        <mxCell id="MrjElrU38foT1K2u0rSW-20" value="" style="verticalLabelPosition=bottom;html=1;verticalAlign=top;align=center;shape=mxgraph.floorplan.room;fillColor=strokeColor;labelBackgroundColor=#3333FF;fontSize=14;" parent="1" vertex="1">
          <mxGeometry x="30" y="510" width="260" height="180" as="geometry" />
        </mxCell>
        <mxCell id="MrjElrU38foT1K2u0rSW-22" value="POSTGRESQL" style="shape=note;whiteSpace=wrap;html=1;backgroundOutline=1;fontColor=#000000;darkOpacity=0.05;fillColor=#FFF9B2;strokeColor=none;fillStyle=solid;direction=west;gradientDirection=north;gradientColor=#FFF2A1;shadow=1;size=20;pointerEvents=1;labelBackgroundColor=#FFFFFF;fontSize=14;" parent="1" vertex="1">
          <mxGeometry x="90" y="550" width="140" height="110" as="geometry" />
        </mxCell>
        <mxCell id="MrjElrU38foT1K2u0rSW-23" value="" style="endArrow=classic;startArrow=classic;html=1;rounded=0;fontSize=14;entryX=0.446;entryY=0.996;entryDx=0;entryDy=0;entryPerimeter=0;" parent="1" target="MrjElrU38foT1K2u0rSW-11" edge="1">
          <mxGeometry width="50" height="50" relative="1" as="geometry">
            <mxPoint x="160" y="460" as="sourcePoint" />
            <mxPoint x="210" y="410" as="targetPoint" />
          </mxGeometry>
        </mxCell>
        <mxCell id="MrjElrU38foT1K2u0rSW-24" value="Hibernate, JPA Persitance, DataJPA Persistance" style="rounded=1;whiteSpace=wrap;html=1;labelBackgroundColor=#FFFFFF;fontSize=14;" parent="1" vertex="1">
          <mxGeometry x="160" y="370" width="120" height="70" as="geometry" />
        </mxCell>
        <mxCell id="Gu4WRyABpQjgVBlWQwCZ-6" style="edgeStyle=orthogonalEdgeStyle;rounded=0;orthogonalLoop=1;jettySize=auto;html=1;exitX=1;exitY=0;exitDx=0;exitDy=0;" edge="1" parent="1" source="Gu4WRyABpQjgVBlWQwCZ-2">
          <mxGeometry relative="1" as="geometry">
            <mxPoint x="320" y="250" as="targetPoint" />
            <Array as="points">
              <mxPoint x="290" y="250" />
            </Array>
          </mxGeometry>
        </mxCell>
        <mxCell id="Gu4WRyABpQjgVBlWQwCZ-2" value="REST API" style="rounded=1;whiteSpace=wrap;html=1;" vertex="1" parent="1">
          <mxGeometry x="210" y="268.21" width="80" height="40" as="geometry" />
        </mxCell>
      </root>
    </mxGraphModel>
  </diagram>
</mxfile>
